<svg width="90" height="32" viewBox="0 0 90 32" fill="none" xmlns="http://www.w3.org/2000/svg">
<rect width="90" height="32" rx="5" fill="#E82126"/>
<path d="M17.909 24V7.9H20.991L30.49 19.492H28.995V7.9H32.675V24H29.616L20.094 12.408H21.589V24H17.909ZM39.9112 14.386H47.6622V17.284H39.9112V14.386ZM40.1872 21.01H48.9502V24H36.4842V7.9H48.6512V10.89H40.1872V21.01ZM55.5543 24L50.2873 7.9H54.1513L58.7283 22.16H56.7963L61.5803 7.9H65.0303L69.6303 22.16H67.7673L72.4593 7.9H76.0243L70.7573 24H66.7553L62.6843 11.488H63.7423L59.5563 24H55.5543Z" fill="white"/>
</svg>
