<svg width="628" height="135" viewBox="0 0 628 135" fill="none" xmlns="http://www.w3.org/2000/svg">
<rect width="129" height="135" rx="14" fill="#282828"/>
<path d="M0 67H129V121C129 128.732 122.732 135 115 135H14C6.26801 135 0 128.732 0 121V67Z" fill="#505050"/>
<rect x="165" width="129" height="135" rx="14" fill="#282828"/>
<path d="M165 67H294V121C294 128.732 287.732 135 280 135H179C171.268 135 165 128.732 165 121V67Z" fill="#505050"/>
<rect x="332" width="129" height="135" rx="14" fill="#282828"/>
<path d="M332 67H461V121C461 128.732 454.732 135 447 135H346C338.268 135 332 128.732 332 121V67Z" fill="#505050"/>
<rect x="499" width="129" height="135" rx="14" fill="#282828"/>
<path d="M499 67H628V121C628 128.732 621.732 135 614 135H513C505.268 135 499 128.732 499 121V67Z" fill="#505050"/>
</svg>
